<svg xmlns="http://www.w3.org/2000/svg" width="1016.284" height="969.445"><defs><style>.prefix__cls-2,.prefix__cls-3{fill:#27c181}.prefix__cls-3{fill-rule:evenodd}</style></defs><g id="prefix__home-back" opacity=".3"><path id="prefix__Path_51" d="M2829.089 174.782a1.857 1.857 0 011.956 1.738 9.319 9.319 0 001.376 4.419 8.814 8.814 0 003.332 3.188 1.914 1.914 0 01-1.883 3.332 12.561 12.561 0 01-4.637-4.492 12.343 12.343 0 01-1.883-6.23 1.857 1.857 0 011.739-1.955" class="prefix__cls-2" data-name="Path 51" transform="translate(-2215.875 151.471)"/><path id="prefix__Path_52" d="M2778.864 168.76a1.6 1.6 0 001.6 1.6h9.8a1.585 1.585 0 001.578-1.382l1.733-12.435 3.5 32a1.6 1.6 0 001.463 1.414c.045 0 .083.007.131.007a1.582 1.582 0 001.534-1.167l5.213-18.542 5.134 9.755a1.571 1.571 0 001.607.845 1.6 1.6 0 001.364-1.2l2.5-9.991h12.054a1.6 1.6 0 100-3.2h-13.3a1.6 1.6 0 00-1.554 1.214l-1.784 7.132-5.052-9.59a1.56 1.56 0 00-1.578-.85 1.618 1.618 0 00-1.378 1.156l-4.066 14.463-4.009-36.61a1.591 1.591 0 00-1.566-1.421 1.612 1.612 0 00-1.608 1.386l-3.307 23.82h-8.408a1.6 1.6 0 00-1.6 1.6m-8.468-1.6h5.063a1.6 1.6 0 010 3.2h-5.06a1.6 1.6 0 010-3.2m-10.9 0h5.388a1.6 1.6 0 010 3.2h-5.388a1.6 1.6 0 010-3.2" class="prefix__cls-2" data-name="Path 52" transform="translate(-2139.389 151.471)"/><path id="prefix__Path_53" d="M2818.964 147.834c1.232-1.811 2.318-3.478 3.332-5a2.218 2.218 0 01.58-.579 1.887 1.887 0 012.608.579c.941 1.521 2.028 3.115 3.332 5 1.9 2.79 4.112 6.052 6.22 9.43a1.866 1.866 0 01-3.163 1.98c-2.085-3.335-4.293-6.6-6.172-9.382-.652-.942-1.232-1.884-1.811-2.68-.579.8-1.159 1.738-1.811 2.68-5.433 8.113-13.619 20.138-13.619 26.223a15.628 15.628 0 004.491 10.939 15.324 15.324 0 0010.939 4.491 15.628 15.628 0 0010.939-4.491 15.24 15.24 0 004.347-8.815 1.886 1.886 0 113.742.482 19.206 19.206 0 01-38.225-2.606c0-7.243 8.548-19.848 14.271-28.251" class="prefix__cls-2" data-name="Path 53" transform="translate(-2199.449 151.471)"/><path id="prefix__Path_102" d="M2172.613 341.4h57.368a4.335 4.335 0 014.329 4.329v22.154a1.09 1.09 0 01-1.089 1.089h-63.848a1.09 1.09 0 01-1.089-1.089v-22.149a4.335 4.335 0 014.329-4.329zm56.981 2.177H2173v1.381a1.306 1.306 0 001.3 1.3h53.984a1.306 1.306 0 001.3-1.3zM2173 361.358h56.594v-.146a1.307 1.307 0 00-1.3-1.3H2174.3a1.307 1.307 0 00-1.3 1.3zm56.594 1.451H2173v1.451h56.594zm0 2.9H2173v1.091h56.594zm-59.133 1.088h1.088v-5.588a2.76 2.76 0 012.756-2.756h53.984a2.759 2.759 0 012.756 2.756v5.591h1.088v-21.066a2.152 2.152 0 00-1.088-1.868v1.1a2.759 2.759 0 01-2.756 2.755H2174.3a2.758 2.758 0 01-2.756-2.755v-1.1a2.152 2.152 0 00-1.088 1.868zm0 0" class="prefix__cls-2" data-name="Path 102" transform="translate(-2029.999 -113.529)"/><path id="prefix__Path_103" d="M2197.96 355.554h6.674a.726.726 0 110 1.451h-6.674a.726.726 0 110-1.451zm0 0" class="prefix__cls-2" data-name="Path 103" transform="translate(-2029.999 -113.529)"/><path id="prefix__Path_104" d="M2226.546 355.554a.726.726 0 01.514 1.238.724.724 0 01-1.026 0 .725.725 0 01.512-1.238zm0 0" class="prefix__cls-2" data-name="Path 104" transform="translate(-2080.499 -113.529)"/><path id="prefix__Path_105" d="M2223.209 355.554a.727.727 0 11-.512.212.726.726 0 01.512-.212zm0 0" class="prefix__cls-2" data-name="Path 105" transform="translate(-2073.824 -113.529)"/><path id="prefix__Path_106" d="M2194.055 373.732a.725.725 0 011.265-.71 7.845 7.845 0 010 7.628 6.387 6.387 0 000 6.207.726.726 0 11-1.266.71 7.846 7.846 0 010-7.627 6.389 6.389 0 000-6.208zm0 0" class="prefix__cls-2" data-name="Path 106" transform="translate(-2016.782 -113.529)"/><path id="prefix__Path_107" d="M2200.663 373.732a.726.726 0 011.266-.71 7.846 7.846 0 010 7.628 6.387 6.387 0 000 6.207.726.726 0 11-1.266.71 7.85 7.85 0 010-7.627 6.384 6.384 0 000-6.208zm0 0" class="prefix__cls-2" data-name="Path 107" transform="translate(-2029.999 -113.529)"/><path id="prefix__Path_108" d="M2207.272 373.732a.726.726 0 011.266-.71 7.848 7.848 0 010 7.628 6.387 6.387 0 000 6.207.725.725 0 11-1.265.71 7.841 7.841 0 010-7.627 6.386 6.386 0 000-6.208zm0 0" class="prefix__cls-2" data-name="Path 108" transform="translate(-2043.217 -113.529)"/><path id="prefix__Path_109" d="M1934.006 707.242a2.788 2.788 0 010-3.936l22.945-22.945a2.852 2.852 0 013.937 0l2.622 2.62.428-.429a1.6 1.6 0 112.256 2.256l-.429.429 2.42 2.421a2.788 2.788 0 010 3.936l-22.946 22.944a2.78 2.78 0 01-3.935 0l-2.421-2.419-.739.739 6.748 6.748 13.648-13.648 5.076 5.076 1.32-1.321a4.291 4.291 0 017.279 3.7l9.482 9.483a3.189 3.189 0 010 4.512l-4.888 4.89a3.189 3.189 0 01-4.512 0l-9.483-9.484a4.443 4.443 0 01-.682.053 4.248 4.248 0 01-3.022-1.248 4.309 4.309 0 010-6.085l2.247-2.248-2.819-2.818-13.646 13.648-11.26-11.26 3-3zm26.609 12.875a2.136 2.136 0 001.519.625 2.189 2.189 0 00.687-.109l.619-.2 10.363 10.361a1.089 1.089 0 001.5 0l4.888-4.891a1.06 1.06 0 000-1.5l-10.361-10.362.2-.619a2.166 2.166 0 00-3.592-2.2l-5.826 5.823a2.181 2.181 0 000 3.077zm-17.807-7.083a.672.672 0 00.927 0l22.945-22.944a.659.659 0 000-.928l-7.3-7.3a.657.657 0 00-.93 0l-.729.729c.656 2.514 1.108 5.583-.168 6.761-2.3 2.127-6.463 2.127-6.463 2.127s-.752 4.134-2.527 5.967-6.557 1.833-6.557 1.833 3.546 4.786 2.3 6.2-6.383-1.064-6.383-1.064l-1.4-.631-1.016 1.017a.656.656 0 000 .929zm0 0" class="prefix__cls-2" data-name="Path 109" transform="translate(-1933.193 -25.529)"/><path id="prefix__Path_110" d="M2191.816 796.818a.469.469 0 000-.939h-5.483a.469.469 0 100 .939zm0 0" class="prefix__cls-3" data-name="Path 110" transform="translate(-2048.147 24.471)"/><path id="prefix__Path_111" d="M2191.21 798.7a.473.473 0 000-.946h-4.264a.473.473 0 100 .946zm0 0" class="prefix__cls-3" data-name="Path 111" transform="translate(-2048.151 24.471)"/><path id="prefix__Path_112" d="M2185.68 792.17a.47.47 0 00.941 0 24.828 24.828 0 01.331-4.84 14.057 14.057 0 011.617-4.17.463.463 0 00-.182-.637.473.473 0 00-.639.182 14.7 14.7 0 00-1.722 4.442 25.84 25.84 0 00-.346 5.023zm0 0" class="prefix__cls-3" data-name="Path 112" transform="translate(-2044.309 24.471)"/><path id="prefix__Path_113" d="M2191.528 792.17a.47.47 0 10.94 0 25.837 25.837 0 00-.35-5.023 14.686 14.686 0 00-1.723-4.442.461.461 0 00-.637-.182.471.471 0 00-.183.637 14.006 14.006 0 011.622 4.17 24.828 24.828 0 01.331 4.84zm0 0" class="prefix__cls-3" data-name="Path 113" transform="translate(-2051.985 24.471)"/><path id="prefix__Path_114" d="M2189.22 783.382a.472.472 0 00-.288-.9 5.955 5.955 0 00-.873.379l-.029.015c-.408.206-.748.37-1 .163l-.58-.475a.469.469 0 10-.59.73l.576.474c.723.585 1.314.3 2.024-.058l.025-.009a4.966 4.966 0 01.738-.321zm0 0" class="prefix__cls-3" data-name="Path 114" transform="translate(-2045.225 24.471)"/><path id="prefix__Path_115" d="M2188.6 772.679a.472.472 0 00.47.475.477.477 0 00.476-.475v-1.828a.476.476 0 00-.476-.47.471.471 0 00-.47.47zm0 0" class="prefix__cls-3" data-name="Path 115" transform="translate(-2048.146 24.471)"/><path id="prefix__Path_116" d="M2189.221 782.484a.471.471 0 10-.287.9 5.115 5.115 0 01.739.321l.019.014c.71.355 1.305.643 2.025.053l.58-.469a.474.474 0 00.067-.664.466.466 0 00-.657-.071l-.581.475c-.254.207-.594.043-1.007-.163l-.024-.015a6.374 6.374 0 00-.874-.379zm0 0" class="prefix__cls-3" data-name="Path 116" transform="translate(-2051.075 24.471)"/><path id="prefix__Path_117" d="M2183.141 777.711a8.4 8.4 0 00-2.043 8.535 8.483 8.483 0 001.2 2.345 29.047 29.047 0 002.115 2.562 3.811 3.811 0 011.411 3.151.472.472 0 00.474.471h5.518a.471.471 0 00.474-.471 3.775 3.775 0 011.416-3.123 27.528 27.528 0 002.15-2.59 8.4 8.4 0 00.973-8.156l-.009-.018a8.394 8.394 0 00-13.678-2.706zm-1.511 5.935a7.436 7.436 0 012.178-5.268 7.515 7.515 0 012.418-1.617 7.456 7.456 0 015.7 0 7.471 7.471 0 014.025 4.011l.01.023a7.384 7.384 0 01.566 2.851 7.5 7.5 0 01-.364 2.307 7.6 7.6 0 01-1.065 2.082 28.337 28.337 0 01-2.088 2.514v.005c-1.045 1.146-1.568 1.717-1.649 3.281h-4.6c-.081-1.574-.595-2.14-1.645-3.306a28.82 28.82 0 01-2.053-2.494 7.411 7.411 0 01-1.065-2.077 7.5 7.5 0 01-.365-2.312zm0 0" class="prefix__cls-3" data-name="Path 117" transform="translate(-2048.151 24.471)"/><path id="prefix__Path_118" d="M2190.6 800.56a.47.47 0 100-.939h-3.046a.47.47 0 100 .939zm0 0" class="prefix__cls-3" data-name="Path 118" transform="translate(-2048.151 24.471)"/><path id="prefix__Path_119" d="M2194.957 774.352a.471.471 0 00.643.174.465.465 0 00.172-.639l-.916-1.583a.467.467 0 00-.811.465zm0 0" class="prefix__cls-3" data-name="Path 119" transform="translate(-2059.818 24.471)"/><path id="prefix__Path_120" d="M2199.739 778.464a.467.467 0 00.466-.81l-1.583-.917a.465.465 0 00-.639.172.472.472 0 00.173.644zm0 0" class="prefix__cls-3" data-name="Path 120" transform="translate(-2068.361 24.471)"/><path id="prefix__Path_121" d="M2188.188 785.506a.469.469 0 10.865.365 6.622 6.622 0 00.368-1.189 6.32 6.32 0 00.125-1.243.473.473 0 10-.945 0 5.4 5.4 0 01-.413 2.067zm0-4.14a.469.469 0 00.865-.365 6.315 6.315 0 00-.572-1.054v-.005a6.6 6.6 0 00-.767-.931 6.146 6.146 0 00-.931-.763v-.005a6.734 6.734 0 00-1.06-.571 6.59 6.59 0 00-1.2-.368 6.239 6.239 0 00-1.243-.126.473.473 0 000 .946 5.223 5.223 0 012.073.413 5.364 5.364 0 011.689 1.141 5.676 5.676 0 01.652.792 5.309 5.309 0 01.489.9zm0 0" class="prefix__cls-3" data-name="Path 121" transform="translate(-2042.361 24.471)"/><path id="prefix__Path_122" d="M1968.149 988.17l-2.193 4.043 6.267 3.4 2.041 10.264-4.935 9.1-3.176-1.722a4.574 4.574 0 01-7.8-4.229l-16.448-8.922a4.575 4.575 0 01-7.8-4.228l-5.218-2.83 10.966-20.217zm-6.442 23.978a2.3 2.3 0 10-.925-3.118 2.3 2.3 0 00.925 3.118zm-3.409-5.774l1.154.627a4.575 4.575 0 017.8 4.228l1.156.627 3.442-6.346-1.666-8.389-5.3-2.876-6.58 12.129zM1937.462 999a2.3 2.3 0 10-.923-3.117 2.3 2.3 0 00.923 3.117zm-5.449-6.88l3.2 1.733a4.575 4.575 0 017.8 4.229l13.255 7.19 8.773-16.173-24.247-13.152zm31.595 9.288l2.193-4.043 2.021 1.1.839 5.688zm0 0" class="prefix__cls-2" data-name="Path 122" transform="translate(-1683.16 -45.529)"/><path id="prefix__Path_123" d="M1409.442 499.212l4.124-3.829v-6.27h4.749v1.862l4.749-4.411 13.621 12.648a.478.478 0 01.023.672.473.473 0 01-.67.023l-1.577-1.463v15.838h-22.794v-15.838l-1.578 1.463a.467.467 0 01-.324.127.474.474 0 01-.323-.822zm7.922-9.151h-2.848v4.439l2.848-2.646zm8.55 23.273v-10a.446.446 0 00-.445-.446h-4.81a.446.446 0 00-.445.446v10zm-13.3 0h6.65v-10a1.4 1.4 0 011.394-1.4h4.81a1.4 1.4 0 011.393 1.4v10h6.65v-15.772l-10.448-9.7-6.783 6.3-2.715 2.52-.951.883zm0 0" class="prefix__cls-2" data-name="Path 123" transform="translate(-856.125 324.47)"/><path id="prefix__Path_124" d="M1470.592 786.45a23.057 23.057 0 01-16.053-6.484l-.823-.793 15.806-15.81-5.257-5.256a3.459 3.459 0 111.622-1.553l5.222 5.22 15.375-15.376.794.825a23.059 23.059 0 011.8 29.957 3.419 3.419 0 01.954 4.031l10.167 10.167h4.358a3.369 3.369 0 013.364 3.365v6a3.369 3.369 0 01-3.364 3.365H1469.8a3.37 3.37 0 01-3.365-3.365v-6a3.369 3.369 0 013.365-3.365h3.732l7.394-7.393a22.926 22.926 0 01-10.329 2.465zm20.927-23.17a20.809 20.809 0 00-5.087-13.656l-29.495 29.5a20.837 20.837 0 0026.468.67 3.468 3.468 0 013.463-3.429h.03a20.819 20.819 0 004.621-13.085zm-2.969 21.206v6.9h6.9zm-19.877 10.263v6.005a1.122 1.122 0 001.122 1.121h34.766a1.122 1.122 0 001.122-1.121v-6.005a1.122 1.122 0 00-1.122-1.121H1469.8a1.123 1.123 0 00-1.122 1.121zm16.512-3.364v-6.9l-6.9 6.9zm0 0" class="prefix__cls-2" data-name="Path 124" transform="translate(-491.641 -595.529)"/><path id="prefix__Path_125" d="M1677.133 486.087h17.048a2.59 2.59 0 012.582 2.583v33.072a2.589 2.589 0 01-2.582 2.58h-17.048a2.589 2.589 0 01-2.583-2.58V488.67a2.59 2.59 0 012.583-2.583zm11.251 1.863h-5.455a.313.313 0 000 .625h5.454a.313.313 0 100-.625zm-2.727 35.085a1.293 1.293 0 10-1.293-1.293 1.292 1.292 0 001.293 1.293zm-9.308-3.491h18.617v-29.36h-18.619zm4.225-19.4a7.205 7.205 0 000 10.172c.029.029.06.056.09.081l-.766.768h2.733v-2.733l-.714.714c-.03-.027-.063-.053-.091-.083a5.418 5.418 0 016.157-8.727v-1.608h.736a7.2 7.2 0 00-8.145 1.412zm2.648 11.61h-.58a7.186 7.186 0 008.1-11.608c-.028-.029-.06-.055-.089-.081l.766-.768h-2.734v2.733l.714-.713a1.168 1.168 0 01.092.081 5.42 5.42 0 01-6.266 8.677z" class="prefix__cls-2" data-name="Path 125" transform="translate(-951.313 -435.529)"/><path id="prefix__Path_126" d="M1741.661 302.637a3.323 3.323 0 11-3.319 3.323 3.321 3.321 0 013.319-3.323zm-11.06-11.543a2.5 2.5 0 01.827-1.442l2.208 1.568c1.447-2.261 3.4-3.914 5.81-4.208a7.756 7.756 0 0115.481.707v16.128h.442v1.305h.315l3.421 2.353v1.216h-10.68v-1.216l3.421-2.353h.315v-1.305h.586v-16.128a5.577 5.577 0 00-11.124-.586c2.726.753 3.679 4.272 3.679 14.918 0 .319-.013.625-.038.92a4.682 4.682 0 10-7.206 5.979h-.288a7.138 7.138 0 01-7.169-6.9 22.134 22.134 0 011.768-8.424 7.992 7.992 0 01-1.769-2.532z" class="prefix__cls-2" data-name="Path 126" transform="translate(-1316.317 -170.529)"/><path id="prefix__Path_127" d="M2062.183 422.959a.929.929 0 00-.8-.92v-3.306a3.977 3.977 0 00-3.972-3.972h-1.79a4.91 4.91 0 00-2.537-2.058v-1.155a.949.949 0 00-.019-.186h2.5a.93.93 0 00.93-.931V409.1a.93.93 0 00-.93-.93h-2.478v-.116a.931.931 0 00-.931-.93h-1.414a.931.931 0 00-.93.93v.116h-2.478a.931.931 0 00-.93.93v1.332a.93.93 0 00.93.931h2.5a.949.949 0 00-.019.186v1.151a4.9 4.9 0 00-2.536 2.058h-7.159a.93.93 0 00-.93.93v3.072a.931.931 0 00.93.93h7.063a4.892 4.892 0 008.539 0h.189a.577.577 0 01.576.576v1.779a.928.928 0 00-.745.911v1.581a.929.929 0 00.93.93h4.592a.93.93 0 00.93-.93v-1.581zm-.968 8.933a2.382 2.382 0 01.1.694 2.421 2.421 0 01-4.842 0 2.372 2.372 0 01.112-.723.674.674 0 01.018-.067l1.4-4.472a.93.93 0 011.774 0l1.384 4.406a.97.97 0 01.047.162zm0 0" class="prefix__cls-2" data-name="Path 127" transform="translate(-1255.179 254.471)"/><path id="prefix__Path_128" d="M1723.3 828.417a4.819 4.819 0 004.812 4.825h7.095a4.82 4.82 0 004.815-4.825v-14.728a4.82 4.82 0 00-4.815-4.825h-7.095a4.819 4.819 0 00-4.812 4.825zm1.519-14.728a3.3 3.3 0 013.293-3.3h7.095a3.3 3.3 0 013.3 3.3v14.728a3.3 3.3 0 01-3.3 3.3h-7.095a3.3 3.3 0 01-3.293-3.3zm0 0" class="prefix__cls-2" data-name="Path 128" transform="translate(-1273.32 -125.529)"/><path id="prefix__Path_129" d="M1728.618 810.133a.76.76 0 00.76-.76v-2.778a1.808 1.808 0 01.68-1.286h2.727c.222.039.646.775.646 1.286v2.778a.761.761 0 001.522 0v-2.778c0-1.13-.718-2.808-2-2.808h-2.794c-1.386 0-2.3 1.8-2.3 2.808v2.778a.758.758 0 00.759.76zm0 0" class="prefix__cls-2" data-name="Path 129" transform="translate(-1272.812 -125.529)"/><path id="prefix__Path_130" d="M1746.98 805.569a.764.764 0 00.233-1.49l-9.313-2.979a.761.761 0 00-.462 1.45l9.316 2.983a.738.738 0 00.23.038zm0 0" class="prefix__cls-2" data-name="Path 130" transform="translate(-1294.646 -125.529)"/><path id="prefix__Path_131" d="M1737.664 810.755a.751.751 0 00.232-.037l9.317-2.983a.761.761 0 00-.463-1.45l-9.316 2.981a.763.763 0 00.23 1.489zm0 0" class="prefix__cls-2" data-name="Path 131" transform="translate(-1294.646 -125.529)"/><path id="prefix__Path_132" d="M1741.325 806.832h5.576a.761.761 0 000-1.523h-5.576a.761.761 0 000 1.523zm0 0" class="prefix__cls-2" data-name="Path 132" transform="translate(-1298.226 -125.529)"/><path id="prefix__Path_133" d="M1734.408 824.4c.014-.011.029.012.035.019.029.028.059.072.09.106a.979.979 0 00.121.119c.062.05.127.1.2.147a.612.612 0 00.063.05.438.438 0 00.095.023c.032.009.063.024.092.033s.063.013.095.022a.514.514 0 00.089.027c.017 0 .042-.012.063-.015s.041 0 .061-.005c.041-.005.084-.006.123-.011.01 0 .022-.011.033-.012.026 0 .059 0 .092-.008s.081-.014.119-.017.057 0 .09 0c.069 0 .16.005.238.007h.059a.745.745 0 00.084.005c.015 0 .035-.013.054-.017.067-.012.161-.027.24-.042a.645.645 0 00.094-.017 1.416 1.416 0 00.135-.083 1.205 1.205 0 00.236-.169c.012-.013.023-.033.036-.047s.034-.031.04-.04v-.016a.265.265 0 00.027-.113 1.11 1.11 0 000-.257v-.046a.8.8 0 00-.033-.093c-.009-.029-.013-.061-.023-.09s-.017-.034-.023-.051 0-.033-.01-.043-.034-.046-.056-.078l-.056-.079c-.035-.05-.07-.114-.107-.161s-.1-.091-.142-.139c-.136-.139-.274-.3-.414-.44-.092-.094-.184-.188-.28-.273s-.189-.174-.282-.263c-.025-.024-.046-.054-.072-.077l-.022-.011c-.016-.016-.03-.034-.048-.051-.048-.046-.091-.095-.136-.143-.09-.1-.187-.182-.28-.273a7.778 7.778 0 00-.555-.564c.005-.014.02 0 .025 0a.393.393 0 00.085.02h.09a.277.277 0 01.049 0c.005 0 .01.008.013.008h.031c.009 0 .037.011.057.014a1.977 1.977 0 00.482.011.626.626 0 01.123-.011.3.3 0 01.085.021h.016a.633.633 0 00.09.042h.015l.007.011c.017.007.038.006.057.014s.018.013.026.016a.54.54 0 00.079.024.253.253 0 00.091.017c.012 0 .024-.006.037-.006a.859.859 0 01.276.056c.014 0 .023.015.036.019a.172.172 0 00.038.009.575.575 0 00.161-.066c.027-.012.059-.01.085-.02s.011-.015.02-.02.05-.009.069-.019.031-.028.049-.038.065-.018.093-.033 0-.036.027-.048a.686.686 0 00.15-.085c.006-.024-.015-.006-.031 0s-.019-.018-.03-.022c-.013-.023.009-.038.033-.052-.024-.021-.047 0-.079.016s-.063.038-.091.048a.285.285 0 01-.086 0c-.028.007-.04.034-.061.046s-.043.006-.064.014-.032.029-.049.039-.031.006-.048.013a.137.137 0 00-.061.046c-.02.012-.032-.007-.052.007l-.053.032c-.009-.01-.019 0-.031 0s-.05-.014-.075-.018-.022 0-.031 0c-.048-.008-.119-.031-.174-.047-.032-.01-.066-.018-.1-.029-.01 0-.015-.012-.026-.016s-.05-.01-.076-.018l-.051-.017c-.015-.005-.032-.007-.047-.012s-.017-.013-.026-.016-.018 0-.025 0-.029-.016-.045-.021-.05-.009-.076-.018c-.065-.022-.153-.027-.229-.045a1.87 1.87 0 00-.416-.06 1.017 1.017 0 01-.291-.015c-.011 0-.025-.014-.036-.018a.135.135 0 00-.019-.005c-.038-.019-.1-.042-.144-.065-.006 0-.01-.011-.017-.014s-.025 0-.038-.009-.01-.011-.017-.014l-.089-.042c-.012-.005-.026 0-.038-.009s-.01-.011-.017-.014-.025 0-.038-.009-.009-.011-.016-.014-.03 0-.038-.009a.369.369 0 01-.041-.04l-.037-.034c-.012-.012-.054-.049-.077-.073a1.642 1.642 0 00-.147-.161.1.1 0 00-.016-.014.267.267 0 01-.055-.023.456.456 0 01-.031-.038l-.033-.027-.033-.028h-.02s-.005-.015-.01-.018a.707.707 0 00-.07-.022c-.007 0-.01-.011-.017-.013s-.011 0-.019-.005-.01-.011-.016-.014a.166.166 0 01-.032-.013.166.166 0 00-.019 0c-.009-.005-.021-.018-.03-.022s-.027-.005-.038-.01-.019-.017-.029-.022-.046-.011-.07-.021a1.709 1.709 0 01-.2-.113c-.167-.1-.352-.167-.532-.263a5.544 5.544 0 00.7-.438c.146-.113.293-.25.453-.367a2.1 2.1 0 00.191-.15c.015-.014.025-.028.04-.041.066-.058.15-.123.224-.186a3.428 3.428 0 00.319-.309c.092-.1.188-.218.291-.316a2.259 2.259 0 01.182-.152.893.893 0 00.175-.148c.02-.025.033-.066.053-.1a1.045 1.045 0 01.164-.181.482.482 0 01.045-.044c.017-.013.04-.02.059-.036.042-.037.066-.09.11-.124 0-.057.083-.094.076-.152.054-.025.042-.078.058-.117 0-.007.011-.01.014-.016a.163.163 0 01.027-.049c0-.018-.01-.039-.011-.058a.64.64 0 00.052-.113v-.015c.005-.011.025-.03.008-.053-.021.007 0 .023-.022.029-.039-.02 0-.067-.026-.08-.022 0-.015.026-.024.038s-.026.023-.034.037c-.025.045-.024.1-.1.117a.2.2 0 01-.073.118.315.315 0 01-.032.092.266.266 0 00-.017.026c-.012.036 0 .081-.042.116 0 .028-.016.053-.015.081a.533.533 0 00-.107.115 4.4 4.4 0 01-.349.327c-.083.072-.17.142-.256.214a3.42 3.42 0 01-.279.2 2.975 2.975 0 00-.494.432 1.545 1.545 0 01-.237.219 4.517 4.517 0 01-.485.289c-.3.169-.558.414-.881.59-.016 0-.026-.01-.036-.018-.025-.022-.063-.062-.093-.088s-.083-.07-.13-.106a1.373 1.373 0 00-.132-.1c-.019-.012-.046-.02-.068-.031s-.009-.011-.016-.015a.155.155 0 01-.049-.026.262.262 0 01-.031-.078.477.477 0 01-.032-.078c0-.023.033-.038.045-.059a.356.356 0 01.019-.061c-.021-.073-.057-.15-.024-.211.015-.021.06-.01.095-.042.024-.008-.006-.028-.01-.042a.284.284 0 00.041-.131.913.913 0 00-.182-.284.881.881 0 00-.075-.083c-.072-.064-.16-.094-.226-.145-.046-.177-.124-.347-.187-.531s-.133-.348-.2-.529-.133-.354-.216-.538c-.058-.129-.12-.275-.174-.4a.77.77 0 01-.058-.134c-.01-.058.035-.132.042-.2v-.015a.477.477 0 00-.01-.082.56.56 0 010-.071.519.519 0 010-.056.309.309 0 01.018-.075.51.51 0 00.069.006c.007 0 .014-.007.021-.005s.007.007.013.008a.646.646 0 00.091.017c.02 0 .042.009.062.01a.148.148 0 00.037-.006.487.487 0 01.1.01l.047-.03c.016 0 .028.005.043.006h.071l.012-.007.007.012c.015 0 .035 0 .048-.014-.014-.016-.036 0-.046-.036s0-.02.016-.026c-.018-.026-.05-.011-.072-.013s-.026-.008-.038-.009-.027.009-.036.007c-.03-.006-.056-.03-.087-.036a.5.5 0 00-.055 0c-.035 0-.068-.013-.106-.016-.015 0-.036.008-.054-.007-.026 0-.053.02-.084.019-.016 0-.029-.012-.053-.008a.239.239 0 00-.079.017c-.033.025-.026.081-.03.123l-.005.019c0 .006.006.014.006.021-.009.055-.032.116-.044.18l-.017.091c-.006.031-.006.045-.012.072a.334.334 0 000 .065.665.665 0 00.048.172c.049.131.1.262.152.392.064.173.127.348.186.516s.127.348.171.517.108.344.149.507c-.056 0-.12.041-.175.042-.03.025-.047.062-.08.082a.346.346 0 01-.14.021c-.042-.014-.085-.02-.127-.035a.05.05 0 00-.048.013.5.5 0 00-.082-.03c-.014.016-.03.024-.046.044a.254.254 0 01-.03.043.51.51 0 01-.074.037 1.91 1.91 0 00-.331.252c-.034.009-.078 0-.108.034s-.016.052-.02.085a.3.3 0 00-.02.166c-.032.029-.026.086-.064.12a.621.621 0 01-.124.06c.006.009-.012.01-.014.017s.006.007 0 .015c-.017.027-.058.046-.064.08-.159-.1-.3-.229-.459-.341a8.096 8.096 0 01-.343-.258l-.076-.058c-.013-.011-.027-.015-.039-.024s-.049-.048-.074-.068-.026-.014-.039-.025c-.18-.146-.382-.3-.567-.452-.014-.011-.023-.022-.037-.033s-.027-.015-.039-.025c-.027-.021-.048-.047-.074-.068a2.114 2.114 0 00-.316-.186c-.051-.027-.1-.056-.159-.088-.028-.016-.052-.033-.078-.049a.457.457 0 00-.161-.079.3.3 0 00-.076.127c-.015.022-.038.042-.05.063s0 .031-.011.048-.025.029-.031.043-.007.045-.015.066-.024.04-.029.058 0 .058-.005.084l-.009.013c0 .008-.01.012-.015.026s-.005.026-.01.038-.011.01-.014.017l-.005.019-.011.007c0 .006.013.021 0 .031.021.014.007-.021.026-.024.005.016.033.038.023.05.009.016-.022.026 0 .031s.021-.026.03-.043.019-.027.024-.039 0-.018 0-.025a.176.176 0 00.03-.058l.046-.029c.016-.031.025-.064.038-.1.042-.022.03-.072.047-.109 0-.01.018-.019.022-.03s0-.05.012-.072.032-.039.031-.068a1.044 1.044 0 01.3.194 2.953 2.953 0 01.3.193c.191.166.38.341.578.51.145.123.293.245.436.37.238.207.483.421.732.6a.137.137 0 010 .04.272.272 0 000 .08c.008.038.02.082.029.127a.437.437 0 00.017.079c.016.039.045.082.066.121s.04.083.062.116.087.082.119.129c.047 0 .088.022.14 0 .019-.009 0 .039.027.031a.359.359 0 00.074-.077c.031-.013.063.014.094.023a.423.423 0 01.1.074.24.24 0 00.166-.045c.019-.007.029.022.043.031.059.022.043.1.051.162a2.957 2.957 0 00.164.57 4.817 4.817 0 01-.563.386 5.74 5.74 0 00-.385.293 3.861 3.861 0 01-.386.293 1.973 1.973 0 01-.289.121 2.55 2.55 0 00-.464.244c-.095.065-.185.136-.286.192-.191.106-.392.211-.594.308a2.114 2.114 0 01-.217.093c-.012.005-.023 0-.037.007s-.026.02-.035.021c-.038.007-.068-.024-.114 0a.767.767 0 00-.106-.016c-.03.02-.059 0-.09 0a.473.473 0 00-.06.02c-.022.006-.051 0-.08 0a.159.159 0 00-.05.038c-.033.005-.062.005-.091.009a.242.242 0 00-.026 0c-.008 0-.007.015-.013.016s-.03-.021-.041 0c-.028.026.044.02.051.043s-.038.009-.019.035a.206.206 0 00.118.009.158.158 0 01.072.012.182.182 0 00.036.019.275.275 0 00.036-.007.176.176 0 01.031 0c.021 0 .04.014.057.013a.183.183 0 00.03 0c.01 0 .019-.016.029-.018a.229.229 0 00.054.008c.036-.006.073-.038.115-.022a.512.512 0 01.072-.028.5.5 0 00.069-.018c.029-.015.056-.045.1-.067a.858.858 0 01.272-.095c.025-.005.055 0 .083-.01a.693.693 0 00.107-.05c.11-.058.231-.144.341-.193.071-.032.141-.057.209-.08a3.186 3.186 0 00.536-.232c.074-.041.15-.091.227-.131.044-.024.1-.039.139-.062s.1-.064.153-.093.109-.054.159-.082a5.539 5.539 0 00.938-.657c.026.155.008.311.032.474 0 .029.014.056.019.085v.04c.013.064.033.134.042.2s0 .1.007.158.018.107.026.161c0 .024 0 .053.007.077s.008.03.01.042a1.665 1.665 0 00.084.216c.061.153.1.315.164.48a.735.735 0 01.036.229 1.287 1.287 0 01.006.182 1.723 1.723 0 01-.1.3c0 .01 0 .033-.006.044a.439.439 0 00-.038.161c0 .026-.005.049-.009.078l-.008.013a.6.6 0 01-.026.169 2.2 2.2 0 00-.017.262c0 .037 0 .072-.006.108v.031l-.008.013.007.012c0 .017-.01.031-.011.047a.3.3 0 000 .031v.025c0 .031 0 .07-.006.108 0 .017-.01.031-.012.048s0 .023 0 .03-.009.015-.01.023 0 .02 0 .031a.725.725 0 01-.018.075c0 .016-.024.03-.011.048a.468.468 0 00-.047.029c-.011.01-.012.02-.022.029l-.064.055c-.021.018-.013.022-.022.03-.032.03-.075.045-.085.085l-.065.039c-.018.021-.014.047-.021.071a.516.516 0 00-.131.128c.01.022.041-.032.059 0 .009.021.015.041-.017.051.046.025.1-.066.137-.092s.034.012.057-.011c.042-.035.049-.07.107-.09.02-.05.094-.087.109-.139.014-.012.037-.019.052-.032l.005-.019a.293.293 0 00.066-.09.339.339 0 000-.07 1.012 1.012 0 01.007-.134c0-.01.012-.022.013-.032s-.005-.022 0-.031.014-.024.018-.035.005-.026.01-.038l.023-.055a.14.14 0 00.005-.044l.008-.013a2.094 2.094 0 010-.225v-.13l.008-.013c0-.02 0-.016.009-.038v.001l.011-.007v-.015l.012-.007v-.016l.012-.007c.007-.015.01-.036.017-.051s.007-.006.008-.013.009-.015.011-.022.029-.057.039-.081v-.016a.316.316 0 00.03-.083c.033-.1.052-.216.077-.322a.3.3 0 01.032-.092 3.111 3.111 0 00.182.389c.067.13.13.259.191.392s.127.257.182.389c.026.063.049.126.075.188.04.1.083.2.121.29.025.063.046.126.075.188.058.128.12.251.187.386.043.086.1.193.159.3.031.06.053.128.084.19a1.672 1.672 0 00.118.179c.042.063.081.137.124.19a.861.861 0 00.109.086l.084.071a.305.305 0 00.059.044h.019c.007 0 .047.026.071.037a.611.611 0 00.074.028c.021.008.062.034.09.042a.59.59 0 00.068.006.273.273 0 00.063.01.467.467 0 00.06-.02 1.009 1.009 0 00.245-.127l.122-.091a.212.212 0 00.076-.087c.048-.085.106-.172.163-.261a.482.482 0 00.044-.125c0-.009.014-.016.017-.026.011-.034.019-.074.03-.108s.029-.07.041-.1c.005-.018.007-.038.013-.057s.013-.016.017-.026 0-.019 0-.025.029-.037.039-.056.014-.037.023-.054.023-.035.032-.053c.019-.034.034-.067.056-.107s.051-.1.088-.159v-.1c0-.034.011-.048.012-.072 0-.007-.005-.014-.005-.022s.011-.031.012-.047v-.1a.2.2 0 00-.014-.089l-.036-.123c-.013-.043-.02-.058-.029-.087s-.007-.056-.016-.079a1.5 1.5 0 00-.08-.145.556.556 0 01-.049-.127z" class="prefix__cls-3" data-name="Path 133" transform="translate(-1273.881 -125.529)"/><path id="prefix__Path_71" d="M3041.387 621.164a3.481 3.481 0 002.468-1.021l34.812-34.814a3.488 3.488 0 000-4.936l-11.873-11.873a3.567 3.567 0 00-4.936 0l-34.812 34.81a3.493 3.493 0 000 4.935l11.876 11.876a3.483 3.483 0 002.465 1.023zm23.092-50.373h.043l11.874 11.874v.394l-34.811 34.813a.274.274 0 01-.394 0L3029.315 606a.278.278 0 010-.394l34.813-34.811z" class="prefix__cls-2" data-name="Path 71" transform="translate(-2997.428 -567.529)"/><path id="prefix__Path_72" d="M3048.374 632.259a1.6 1.6 0 001.135-.47l19-19.005 5.424 5.424a1.606 1.606 0 002.271-2.271l-6.559-6.559a1.606 1.606 0 00-2.271 0l-19 19.005-10.9-10.9 2.812-2.811a1.606 1.606 0 00-2.271-2.271l-3.947 3.947a1.606 1.606 0 000 2.271l13.17 13.17a1.6 1.6 0 001.136.47z" class="prefix__cls-2" data-name="Path 72" transform="translate(-3001.992 -567.529)"/><path id="prefix__Path_73" d="M3030.525 647.806a4.42 4.42 0 003.148-1.305l7.845-7.844a4.459 4.459 0 000-6.295l-14.4-14.4a6.637 6.637 0 00-11.326-5.006l-7.821 7.821a6.638 6.638 0 005.008 11.326l14.4 14.394a4.419 4.419 0 003.146 1.309zm-10.033-33.578a3.42 3.42 0 013.372 4.043 1.6 1.6 0 00.443 1.422l14.941 14.94a1.239 1.239 0 010 1.753l-7.845 7.845a1.269 1.269 0 01-1.753 0l-14.938-14.939a1.6 1.6 0 00-1.421-.445 3.428 3.428 0 01-3.044-5.8l7.822-7.821a3.421 3.421 0 012.423-.998z" class="prefix__cls-2" data-name="Path 73" transform="translate(-2940.565 -567.529)"/><path id="prefix__Path_74" d="M3031.514 577.376a1.6 1.6 0 001.136-.47l2.425-2.426a1.605 1.605 0 00-2.27-2.27l-2.426 2.425a1.605 1.605 0 001.135 2.741z" class="prefix__cls-2" data-name="Path 74" transform="translate(-2957.17 -567.529)"/><path id="prefix__Path_75" d="M3074.059 570.919s4.917 7.243-.034 12.469c-3.69 3.9-8.838 2.187-8.838 2.187s-.249 6.559-4.827 9.77-8.609 1.845-8.609 1.845 6.149 6.833 2.8 9.361-12.743-3.382-12.743-3.382z" class="prefix__cls-2" data-name="Path 75" transform="translate(-3009.758 -567.529)"/></g></svg>